<svg
  width="1024"
  height="1024"
  viewBox="0 0 1024 1024"
  xmlns="http://www.w3.org/2000/svg"
  fill="none"
>
  <defs>
    <mask id="chip-cutouts">
      <rect width="1024" height="1024" fill="white"/>
      <rect x="100" y="340" width="180" height="200" rx="10" fill="black"/>
      <rect x="310" y="340" width="180" height="200" rx="10" fill="black"/>
      <rect x="520" y="340" width="180" height="200" rx="10" fill="black"/>
      <rect x="730" y="340" width="180" height="200" rx="10" fill="black"/>
    </mask>
  </defs>

  <!-- PCB Board with transparent chip cutouts -->
  <rect
    x="48"
    y="300"
    width="928"
    height="320"
    rx="12"
    ry="12"
    fill="#FFFFFF"
    mask="url(#chip-cutouts)"
  />

  <!-- Chip outlines -->
  <rect x="100" y="340" width="180" height="200" rx="10" stroke="#FFFFFF" stroke-width="3" fill="none" opacity="0.4"/>
  <rect x="310" y="340" width="180" height="200" rx="10" stroke="#FFFFFF" stroke-width="3" fill="none" opacity="0.4"/>
  <rect x="520" y="340" width="180" height="200" rx="10" stroke="#FFFFFF" stroke-width="3" fill="none" opacity="0.4"/>
  <rect x="730" y="340" width="180" height="200" rx="10" stroke="#FFFFFF" stroke-width="3" fill="none" opacity="0.4"/>

  <!-- Circuit traces -->
  <rect x="100" y="570" width="824" height="10" rx="5" fill="#FFFFFF" opacity="0.18"/>
  <rect x="100" y="590" width="824" height="10" rx="5" fill="#FFFFFF" opacity="0.18"/>

  <!-- Contact pins - left bank -->
  <rect x="80"  y="628" width="18" height="72" rx="3" fill="#FFFFFF"/>
  <rect x="108" y="628" width="18" height="72" rx="3" fill="#FFFFFF"/>
  <rect x="136" y="628" width="18" height="72" rx="3" fill="#FFFFFF"/>
  <rect x="164" y="628" width="18" height="72" rx="3" fill="#FFFFFF"/>
  <rect x="192" y="628" width="18" height="72" rx="3" fill="#FFFFFF"/>
  <rect x="220" y="628" width="18" height="72" rx="3" fill="#FFFFFF"/>
  <rect x="248" y="628" width="18" height="72" rx="3" fill="#FFFFFF"/>
  <rect x="276" y="628" width="18" height="72" rx="3" fill="#FFFFFF"/>
  <rect x="304" y="628" width="18" height="72" rx="3" fill="#FFFFFF"/>
  <rect x="332" y="628" width="18" height="72" rx="3" fill="#FFFFFF"/>
  <rect x="360" y="628" width="18" height="72" rx="3" fill="#FFFFFF"/>
  <rect x="388" y="628" width="18" height="72" rx="3" fill="#FFFFFF"/>
  <rect x="416" y="628" width="18" height="72" rx="3" fill="#FFFFFF"/>
  <rect x="444" y="628" width="18" height="72" rx="3" fill="#FFFFFF"/>
  <rect x="472" y="628" width="18" height="72" rx="3" fill="#FFFFFF"/>
  <rect x="500" y="628" width="18" height="72" rx="3" fill="#FFFFFF"/>
  <rect x="528" y="628" width="18" height="72" rx="3" fill="#FFFFFF"/>
  <rect x="556" y="628" width="18" height="72" rx="3" fill="#FFFFFF"/>
  <rect x="584" y="628" width="18" height="72" rx="3" fill="#FFFFFF"/>
  <rect x="612" y="628" width="18" height="72" rx="3" fill="#FFFFFF"/>
  <!-- Key slot gap -->
  <rect x="668" y="628" width="18" height="72" rx="3" fill="#FFFFFF"/>
  <rect x="696" y="628" width="18" height="72" rx="3" fill="#FFFFFF"/>
  <rect x="724" y="628" width="18" height="72" rx="3" fill="#FFFFFF"/>
  <rect x="752" y="628" width="18" height="72" rx="3" fill="#FFFFFF"/>
  <rect x="780" y="628" width="18" height="72" rx="3" fill="#FFFFFF"/>
  <rect x="808" y="628" width="18" height="72" rx="3" fill="#FFFFFF"/>
  <rect x="836" y="628" width="18" height="72" rx="3" fill="#FFFFFF"/>
  <rect x="864" y="628" width="18" height="72" rx="3" fill="#FFFFFF"/>
  <rect x="892" y="628" width="18" height="72" rx="3" fill="#FFFFFF"/>
  <rect x="920" y="628" width="18" height="72" rx="3" fill="#FFFFFF"/>
</svg>
