<svg
  width="256"
  height="256"
  viewBox="0 0 256 256"
  xmlns="http://www.w3.org/2000/svg"
  fill="none"
>
  <defs>
    <mask id="traces">
      <rect width="256" height="256" fill="white"/>
      <rect x="72" y="108" width="112" height="6" rx="3" fill="black"/>
      <rect x="72" y="125" width="112" height="6" rx="3" fill="black"/>
      <rect x="72" y="142" width="112" height="6" rx="3" fill="black"/>
    </mask>
  </defs>

  <!-- Main chip body with transparent trace cutouts -->
  <rect
    x="28"
    y="64"
    width="200"
    height="128"
    rx="18"
    ry="18"
    fill="currentColor"
    mask="url(#traces)"
  />

  <!-- Top pins - 5 evenly spaced -->
  <rect x="42"  y="38" width="20" height="26" rx="4" fill="currentColor"/>
  <rect x="78"  y="38" width="20" height="26" rx="4" fill="currentColor"/>
  <rect x="118" y="38" width="20" height="26" rx="4" fill="currentColor"/>
  <rect x="158" y="38" width="20" height="26" rx="4" fill="currentColor"/>
  <rect x="194" y="38" width="20" height="26" rx="4" fill="currentColor"/>

  <!-- Bottom pins - 5 evenly spaced -->
  <rect x="42"  y="192" width="20" height="26" rx="4" fill="currentColor"/>
  <rect x="78"  y="192" width="20" height="26" rx="4" fill="currentColor"/>
  <rect x="118" y="192" width="20" height="26" rx="4" fill="currentColor"/>
  <rect x="158" y="192" width="20" height="26" rx="4" fill="currentColor"/>
  <rect x="194" y="192" width="20" height="26" rx="4" fill="currentColor"/>

  <!-- Inner chip window outline -->
  <rect
    x="56"
    y="88"
    width="144"
    height="80"
    rx="10"
    fill="none"
    stroke="currentColor"
    stroke-width="6"
    opacity="0.35"
  />

  <!-- Small notch/key indicator on left side of chip -->
  <circle cx="46" cy="128" r="6" fill="currentColor" opacity="0.25"/>
</svg>
